<svg width="40" height="40" viewBox="0 0 40 40" fill="none" xmlns="http://www.w3.org/2000/svg">
<rect width="40" height="40" rx="16" fill="#818182"/>
<path d="M8.642 14.7535C7.79393 14.7535 7.01435 14.6361 6.30344 14.4016C5.59253 14.1671 4.99384 13.8094 4.50737 13.3286C4.02099 12.8477 3.68112 12.2437 3.48776 11.5167C3.29449 10.7896 3.27891 9.93938 3.441 8.96603L4.35774 3.49524C4.44502 2.99094 4.64462 2.61569 4.95644 2.3694C5.26825 2.12311 5.69228 2.00001 6.22863 2.00001C6.80238 2.00001 7.22018 2.15242 7.48212 2.45733C7.74396 2.76224 7.83134 3.20206 7.74397 3.77662L6.82732 9.14189C6.69007 10.0566 6.79303 10.772 7.13601 11.288C7.479 11.804 8.07448 12.062 8.92264 12.062C9.69599 12.062 10.3195 11.8597 10.7935 11.4551C11.2674 11.0505 11.573 10.4377 11.7103 9.61688L12.7392 3.49524C12.8265 2.99094 13.0261 2.61569 13.3379 2.3694C13.6497 2.12311 14.0738 2.00001 14.6101 2.00001C15.1713 2.00001 15.5798 2.15242 15.8356 2.45733C16.0912 2.76224 16.1754 3.1962 16.088 3.75904L15.1339 9.45852C14.9469 10.5961 14.5976 11.5577 14.0862 12.3435C13.5749 13.1292 12.8764 13.7273 11.9909 14.1378C11.1053 14.5482 9.98901 14.7535 8.642 14.7535Z" fill="#FFED00"/>
<path d="M17.2667 14.7183C16.8552 14.7183 16.5153 14.6361 16.2471 14.472C15.9789 14.3078 15.8199 14.0849 15.77 13.8035C15.7201 13.5221 15.8074 13.2113 16.0319 12.8711L22.5425 3.07301C22.792 2.68603 23.0633 2.41043 23.3564 2.24621C23.6495 2.08208 24.0268 2.00001 24.4882 2.00001C24.9498 2.00001 25.3302 2.10846 25.6295 2.32544C25.9289 2.54233 26.1471 2.87362 26.2843 3.3193L29.3712 12.8184C29.5084 13.2289 29.5334 13.5778 29.4461 13.8651C29.3587 14.1524 29.1904 14.3664 28.9409 14.5072C28.6914 14.6478 28.3921 14.7183 28.0429 14.7183C27.544 14.7183 27.1668 14.6097 26.9111 14.3928C26.6554 14.1759 26.4526 13.8211 26.303 13.3286L25.7791 11.3936L26.7333 12.0444H19.2498L20.4098 11.4639L18.9318 13.8211C18.7572 14.1143 18.5327 14.3371 18.2583 14.4896C17.9839 14.642 17.6533 14.7183 17.2667 14.7183ZM24.1141 5.53573L21.2142 10.1445L20.8027 9.56412H26.0411L25.4611 10.215L24.1515 5.53573H24.1141Z" fill="#FFED00"/>
<path d="M7.8518 18.6323C7.79094 18.446 7.71071 18.2791 7.61112 18.1316C7.51338 17.9822 7.39627 17.8549 7.2598 17.7498C7.12517 17.6447 6.9721 17.5645 6.80058 17.5091C6.62907 17.4538 6.44096 17.4261 6.23625 17.4261C5.90059 17.4261 5.59537 17.5128 5.32058 17.6862C5.04579 17.8595 4.82725 18.115 4.66496 18.4525C4.50266 18.79 4.42152 19.204 4.42152 19.6946C4.42152 20.1851 4.50358 20.5992 4.66772 20.9367C4.83186 21.2741 5.05409 21.5296 5.33441 21.7029C5.61474 21.8763 5.9301 21.963 6.28051 21.963C6.60509 21.963 6.89095 21.8938 7.13808 21.7555C7.38705 21.6153 7.5807 21.418 7.71901 21.1635C7.85918 20.9071 7.92926 20.6056 7.92926 20.2589L8.1395 20.3032H6.43542V19.6946H8.59318V20.3032C8.59318 20.7697 8.49359 21.1755 8.29442 21.5204C8.09708 21.8652 7.82413 22.1326 7.47557 22.3226C7.12886 22.5107 6.7305 22.6048 6.28051 22.6048C5.77888 22.6048 5.3381 22.4867 4.95819 22.2507C4.58012 22.0146 4.28504 21.679 4.07296 21.2437C3.86271 20.8085 3.75759 20.2921 3.75759 19.6946C3.75759 19.2464 3.81753 18.8434 3.9374 18.4857C4.05912 18.126 4.23064 17.8199 4.45195 17.5672C4.67325 17.3146 4.93514 17.1209 5.23759 16.9863C5.54005 16.8517 5.87293 16.7844 6.23625 16.7844C6.53501 16.7844 6.81349 16.8295 7.07169 16.9199C7.33172 17.0084 7.56317 17.1348 7.76604 17.2989C7.97075 17.4612 8.14134 17.6558 8.27782 17.8826C8.41429 18.1076 8.50835 18.3575 8.55999 18.6323H7.8518ZM9.76819 22.5273V16.8618H11.6825C12.1251 16.8618 12.4884 16.9374 12.7725 17.0887C13.0565 17.238 13.2667 17.4437 13.4032 17.7055C13.5397 17.9674 13.6079 18.2653 13.6079 18.5991C13.6079 18.9329 13.5397 19.2289 13.4032 19.4871C13.2667 19.7453 13.0574 19.9481 12.7752 20.0957C12.4931 20.2414 12.1325 20.3142 11.6936 20.3142H10.1444V19.6946H11.6714C11.9739 19.6946 12.2173 19.6503 12.4018 19.5618C12.588 19.4733 12.7227 19.3478 12.8057 19.1855C12.8905 19.0214 12.9329 18.8259 12.9329 18.5991C12.9329 18.3722 12.8905 18.174 12.8057 18.0043C12.7208 17.8346 12.5853 17.7037 12.399 17.6115C12.2127 17.5174 11.9665 17.4704 11.6604 17.4704H10.4542V22.5273H9.76819ZM12.435 19.9823L13.8292 22.5273H13.0325L11.6604 19.9823H12.435ZM14.9835 22.5273H14.2642L16.3445 16.8618H17.0527L19.133 22.5273H18.4137L16.7207 17.7581H16.6765L14.9835 22.5273ZM15.249 20.3142H18.1482V20.9228H15.249V20.3142ZM20.0155 22.5273V16.8618H21.9298C22.3742 16.8618 22.7376 16.942 23.0197 17.1025C23.3037 17.2611 23.514 17.4759 23.6505 17.747C23.7869 18.0181 23.8552 18.3206 23.8552 18.6544C23.8552 18.9882 23.7869 19.2916 23.6505 19.5645C23.5158 19.8375 23.3074 20.0551 23.0253 20.2174C22.7431 20.3778 22.3816 20.4581 21.9409 20.4581H20.5687V19.8495H21.9187C22.223 19.8495 22.4674 19.7969 22.6518 19.6918C22.8362 19.5867 22.9699 19.4447 23.0529 19.2658C23.1378 19.085 23.1802 18.8812 23.1802 18.6544C23.1802 18.4276 23.1378 18.2247 23.0529 18.0458C22.9699 17.8669 22.8353 17.7268 22.649 17.6253C22.4628 17.522 22.2156 17.4704 21.9077 17.4704H20.7015V22.5273H20.0155ZM24.9603 22.5273V16.8618H25.6464V19.3847H28.6672V16.8618H29.3533V22.5273H28.6672V19.9933H25.6464V22.5273H24.9603ZM31.4129 16.8618V22.5273H30.7268V16.8618H31.4129ZM37.3474 18.6323H36.6613C36.6207 18.4349 36.5497 18.2616 36.4483 18.1122C36.3487 17.9628 36.227 17.8374 36.0832 17.736C35.9411 17.6327 35.7835 17.5552 35.6101 17.5036C35.4367 17.452 35.256 17.4261 35.0679 17.4261C34.7249 17.4261 34.4141 17.5128 34.1356 17.6862C33.859 17.8595 33.6386 18.115 33.4745 18.4525C33.3122 18.79 33.231 19.204 33.231 19.6946C33.231 20.1851 33.3122 20.5992 33.4745 20.9367C33.6386 21.2741 33.859 21.5296 34.1356 21.7029C34.4141 21.8763 34.7249 21.963 35.0679 21.963C35.256 21.963 35.4367 21.9372 35.6101 21.8855C35.7835 21.8339 35.9411 21.7573 36.0832 21.6559C36.227 21.5526 36.3487 21.4263 36.4483 21.2769C36.5497 21.1257 36.6207 20.9523 36.6613 20.7568H37.3474C37.2957 21.0464 37.2017 21.3055 37.0652 21.5342C36.9287 21.7629 36.7591 21.9574 36.5562 22.1179C36.3533 22.2765 36.1256 22.3973 35.8729 22.4803C35.6221 22.5633 35.3538 22.6048 35.0679 22.6048C34.5847 22.6048 34.155 22.4867 33.7788 22.2507C33.4026 22.0146 33.1066 21.679 32.8908 21.2437C32.675 20.8085 32.5671 20.2921 32.5671 19.6946C32.5671 19.097 32.675 18.5806 32.8908 18.1454C33.1066 17.7102 33.4026 17.3745 33.7788 17.1384C34.155 16.9024 34.5847 16.7844 35.0679 16.7844C35.3538 16.7844 35.6221 16.8258 35.8729 16.9088C36.1256 16.9918 36.3533 17.1135 36.5562 17.274C36.7591 17.4326 36.9287 17.6262 37.0652 17.8549C37.2017 18.0818 37.2957 18.3409 37.3474 18.6323Z" fill="#00A0E3"/>
<path d="M6.99663 35.1714H4.12632V25.8702H7.12379C8.02606 25.8702 8.79814 26.0564 9.44002 26.4288C10.0819 26.7982 10.5739 27.3296 10.916 28.0229C11.2582 28.7132 11.4292 29.5398 11.4292 30.5026C11.4292 31.4715 11.2567 32.3057 10.9115 33.0051C10.5663 33.7015 10.0637 34.2374 9.40369 34.6128C8.74364 34.9852 7.94128 35.1714 6.99663 35.1714ZM5.25264 34.1723H6.92396C7.69301 34.1723 8.33035 34.0239 8.83598 33.7272C9.34162 33.4305 9.71857 33.0081 9.96685 32.4601C10.2151 31.9121 10.3393 31.2596 10.3393 30.5026C10.3393 29.7518 10.2166 29.1053 9.97139 28.5634C9.72614 28.0184 9.35978 27.6005 8.87232 27.3099C8.38485 27.0162 7.77778 26.8693 7.05113 26.8693H5.25264V34.1723ZM14.4449 25.8702V35.1714H13.3186V25.8702H14.4449ZM16.3944 35.1714V34.3539L21.4083 26.8693H16.3399V25.8702H22.7526V26.6877L17.7387 34.1723H22.8071V35.1714H16.3944Z" fill="#AE4A84"/>
</svg>
